<?xml version="1.0" encoding="UTF-8" standalone="no"?>
<!-- Uploaded to: SVG Repo, www.svgrepo.com, Generator: SVG Repo Mixer Tools -->

<svg
   width="800px"
   height="800px"
   viewBox="0 0 64 64"
   id="icons"
   version="1.1"
   sodipodi:docname="ecommerce-guarantee-safe.svg"
   inkscape:version="1.3.2 (091e20e, 2023-11-25, custom)"
   xmlns:inkscape="http://www.inkscape.org/namespaces/inkscape"
   xmlns:sodipodi="http://sodipodi.sourceforge.net/DTD/sodipodi-0.dtd"
   xmlns="http://www.w3.org/2000/svg"
   xmlns:svg="http://www.w3.org/2000/svg">
  <sodipodi:namedview
     id="namedview2"
     pagecolor="#ffffff"
     bordercolor="#000000"
     borderopacity="0.25"
     inkscape:showpageshadow="2"
     inkscape:pageopacity="0.0"
     inkscape:pagecheckerboard="0"
     inkscape:deskcolor="#d1d1d1"
     inkscape:zoom="0.63625"
     inkscape:cx="400"
     inkscape:cy="400"
     inkscape:window-width="1366"
     inkscape:window-height="705"
     inkscape:window-x="-8"
     inkscape:window-y="-8"
     inkscape:window-maximized="1"
     inkscape:current-layer="icons" />
  <defs
     id="defs1">
    <style
       id="style1">.cls-1{fill:#231f20;}</style>
  </defs>
  <title
     id="title1" />
  <path
     class="cls-1"
     d="M57.56,11.35l-25-7.26a2,2,0,0,0-1.14,0h0l-25,7.27A2,2,0,0,0,5,13.27V35.1c0,19,25.43,25.57,26.52,25.84A2,2,0,0,0,32,61a1.77,1.77,0,0,0,.52-.07C34.08,60.54,59,53.92,59,35.1V13.27A2,2,0,0,0,57.56,11.35ZM55,35.1C55,49.7,35.36,56,32,56.93,28.64,56,9,49.73,9,35.1V14.78l23-6.7,23,6.7Z"
     id="path1"
     style="fill:#fd8210;fill-opacity:1" />
  <path
     class="cls-1"
     d="M30,20v2.09A6,6,0,0,0,31,34h3a2,2,0,0,1,0,4H28a2,2,0,0,0,0,4h2v2a2,2,0,0,0,4,0V42a6,6,0,0,0,0-12H31a2,2,0,0,1,0-4h6a2,2,0,0,0,0-4H34V20a2,2,0,0,0-4,0Z"
     id="path2"
     style="fill:#fd8210;fill-opacity:1" />
</svg>
