<?xml version="1.0" encoding="UTF-8" standalone="no"?>
<!-- Uploaded to: SVG Repo, www.svgrepo.com, Generator: SVG Repo Mixer Tools -->

<svg
   fill="#000000"
   width="800px"
   height="800px"
   viewBox="0 0 32 32"
   version="1.1"
   id="svg3"
   sodipodi:docname="money-back-business-warranty-satisfaction-marketing-guaranted.svg"
   inkscape:version="1.3.2 (091e20e, 2023-11-25, custom)"
   xmlns:inkscape="http://www.inkscape.org/namespaces/inkscape"
   xmlns:sodipodi="http://sodipodi.sourceforge.net/DTD/sodipodi-0.dtd"
   xmlns="http://www.w3.org/2000/svg"
   xmlns:svg="http://www.w3.org/2000/svg">
  <defs
     id="defs3" />
  <sodipodi:namedview
     id="namedview3"
     pagecolor="#ffffff"
     bordercolor="#000000"
     borderopacity="0.25"
     inkscape:showpageshadow="2"
     inkscape:pageopacity="0.0"
     inkscape:pagecheckerboard="0"
     inkscape:deskcolor="#d1d1d1"
     inkscape:zoom="0.63625"
     inkscape:cx="400"
     inkscape:cy="400"
     inkscape:window-width="1366"
     inkscape:window-height="705"
     inkscape:window-x="-8"
     inkscape:window-y="-8"
     inkscape:window-maximized="1"
     inkscape:current-layer="svg3" />
  <g
     data-name="27. Return"
     id="_27._Return"
     style="fill:#fd8210;fill-opacity:1">
    <path
       d="M16,0A16,16,0,0,0,4.08,26.66a13,13,0,0,0,1,1.06c.22.21.45.42.69.62s.59.46.88.66H6a1,1,0,0,0,0,2H9a1,1,0,0,0,1-1V27a1,1,0,0,0-2,0v.47c-.3-.21-.61-.43-.93-.68s-.39-.34-.57-.52-.63-.61-.93-.94A14,14,0,1,1,16,30a13.57,13.57,0,0,1-2.8-.28,1,1,0,1,0-.4,2A16,16,0,1,0,16,0Z"
       id="path1"
       style="fill:#fd8210;fill-opacity:1" />
    <path
       d="M26,16A10,10,0,1,0,16,26,10,10,0,0,0,26,16ZM8,16a8,8,0,1,1,8,8A8,8,0,0,1,8,16Z"
       id="path2"
       style="fill:#fd8210;fill-opacity:1" />
    <path
       d="M17,21v-.18A3,3,0,0,0,16,15a1,1,0,0,1,0-2h2a1,1,0,0,0,0-2H17a1,1,0,0,0-2,0v.18A3,3,0,0,0,16,17a1,1,0,0,1,0,2H14a1,1,0,0,0,0,2h1a1,1,0,0,0,2,0Z"
       id="path3"
       style="fill:#fd8210;fill-opacity:1" />
  </g>
</svg>
